<svg width="441" height="492" viewBox="0 0 441 492" fill="none" xmlns="http://www.w3.org/2000/svg">
<path d="M220.04 50.859C218.213 50.859 216.385 51.0875 214.557 51.0875L233.293 27.7811C239.234 20.4692 238.092 9.50151 230.551 3.78915C223.239 -2.15171 212.5 -1.00924 206.559 6.53108L161.546 62.7407C161.317 62.9692 161.317 63.1977 161.089 63.6547C160.403 64.5687 159.946 65.7112 159.489 66.6252C159.032 67.7676 158.575 68.6816 158.347 69.5956C158.118 70.738 158.118 71.652 158.118 72.7945V76.2219V77.3644C158.347 78.0499 158.804 78.5069 159.032 79.4208C159.489 80.5633 159.718 81.4773 160.403 82.3913C161.089 83.3052 161.774 84.2192 162.688 85.1332C163.145 85.5902 163.602 86.2757 164.059 86.7327C164.288 86.9612 164.745 86.9612 164.973 87.1896C165.659 87.6466 166.344 88.1036 167.258 88.3321C168.4 89.0176 169.543 89.4746 170.685 89.7031C171.599 90.1601 172.285 90.1601 173.199 90.1601C173.884 90.1601 174.342 90.3886 175.027 90.3886C175.484 90.3886 176.17 90.1601 176.627 89.9316H178.911C193.535 86.5042 207.245 84.9047 220.269 84.9047C322.863 84.9047 406.264 168.305 406.264 270.898C406.264 373.492 322.863 456.893 220.269 456.893C117.675 456.893 34.2742 373.492 34.2742 270.898C34.2742 231.14 47.2984 192.754 71.9758 159.851C77.6881 152.311 76.0887 141.571 68.5484 135.859C61.008 130.147 50.2688 131.746 44.5564 139.286C15.3091 178.13 0 223.6 0 270.898C0 392.229 98.7096 491.167 220.269 491.167C341.828 491.167 440.538 392.457 440.538 270.898C440.538 149.34 341.371 50.859 220.04 50.859Z" fill="#FAFAFA"/>
</svg>
