<svg width="143" height="144" viewBox="0 0 143 144" fill="none" xmlns="http://www.w3.org/2000/svg">
<path d="M105.866 0H87.2626C64.3667 0 50.0568 14.3099 50.0568 37.2058V66.1834H94.7753C97.7089 66.1834 100.142 68.6161 100.142 71.5497C100.142 74.4832 97.7089 76.9159 94.7753 76.9159H50.0568V105.894C50.0568 128.789 64.3667 143.099 87.2626 143.099H105.794C128.69 143.099 143 128.789 143 105.894V37.2058C143.071 14.3099 128.761 0 105.866 0Z" fill="#FAFAFA"/>
<path d="M18.2988 66.1819L33.1096 51.3714C34.1829 50.2982 34.6837 48.9387 34.6837 47.5793C34.6837 46.2199 34.1829 44.7889 33.1096 43.7872C31.0347 41.7122 27.6003 41.7122 25.5253 43.7872L1.55621 67.756C-0.518735 69.831 -0.518735 73.2654 1.55621 75.3403L25.5253 99.3094C27.6003 101.384 31.0347 101.384 33.1096 99.3094C35.1846 97.2345 35.1846 93.8001 33.1096 91.7252L18.2988 76.9144H50.0669V66.1819H18.2988Z" fill="#FAFAFA"/>
</svg>
