<svg width="441" height="441" viewBox="0 0 441 441" fill="none" xmlns="http://www.w3.org/2000/svg">
<path d="M187.212 394.246V46.2523C187.212 13.215 173.263 0 138.023 0H49.189C13.9491 0 0 13.215 0 46.2523V394.246C0 427.284 13.9491 440.499 49.189 440.499H138.023C173.263 440.499 187.212 427.284 187.212 394.246Z" fill="#FAFAFA"/>
<path d="M440.537 394.246V46.2523C440.537 13.215 426.588 0 391.348 0H302.514C267.519 0 253.325 13.215 253.325 46.2523V394.246C253.325 427.284 267.274 440.499 302.514 440.499H391.348C426.588 440.499 440.537 427.284 440.537 394.246Z" fill="#FAFAFA"/>
</svg>
