<svg width="146" height="146" viewBox="0 0 146 146" fill="none" xmlns="http://www.w3.org/2000/svg">
<path d="M23.6533 145.859C15.2911 145.859 9.99012 143.022 6.63032 139.662C0.0600421 133.092 -4.56902 119.13 10.2141 89.4891L16.7097 76.5725C17.531 74.8553 17.531 71.2715 16.7097 69.5542L10.2141 56.6377C-4.64368 26.9968 0.0600421 12.9603 6.63032 6.46465C13.1259 -0.105623 27.1624 -4.80934 56.7287 10.0484L120.639 42.0039C136.542 49.9181 145.278 60.9681 145.278 73.0634C145.278 85.1586 136.542 96.2087 120.714 104.123L56.8033 136.078C42.3189 143.321 31.5675 145.859 23.6533 145.859ZM23.6533 11.467C19.6215 11.467 16.4857 12.4376 14.5445 14.3789C9.09417 19.7545 11.2594 33.7164 20.2188 51.5606L26.7145 64.5519C29.1036 69.4049 29.1036 76.7218 26.7145 81.5749L20.2188 94.4914C11.2594 112.41 9.09417 126.298 14.5445 131.673C19.9202 137.124 33.882 134.958 51.801 125.999L115.711 94.0435C127.433 88.2198 134.078 80.5296 134.078 72.9887C134.078 65.4478 127.359 57.7576 115.637 51.9339L51.7263 20.0532C40.3776 14.3789 30.5969 11.467 23.6533 11.467Z" fill="#E4E4E4"/>
<path d="M64.1915 78.6637H23.8736C20.8124 78.6637 18.2739 76.1252 18.2739 73.064C18.2739 70.0029 20.8124 67.4644 23.8736 67.4644H64.1915C67.2527 67.4644 69.7912 70.0029 69.7912 73.064C69.7912 76.1252 67.2527 78.6637 64.1915 78.6637Z" fill="#E4E4E4"/>
</svg>
