<svg width="923" height="871" viewBox="0 0 923 871" fill="none" xmlns="http://www.w3.org/2000/svg">
<path d="M834.508 307.011C751.057 307.011 716.939 247.996 758.434 175.611C782.409 133.655 768.116 80.1728 726.16 56.1979L646.398 10.5536C609.975 -11.116 562.947 1.79356 541.277 38.2168L536.206 46.9769C494.711 119.362 426.475 119.362 384.519 46.9769L379.447 38.2168C358.7 1.79356 311.673 -11.116 275.249 10.5536L195.487 56.1979C153.531 80.1728 139.238 134.116 163.213 176.072C205.169 247.996 171.051 307.011 87.6003 307.011C39.6507 307.011 0 346.201 0 394.612V475.757C0 523.707 39.1896 563.357 87.6003 563.357C171.051 563.357 205.169 622.372 163.213 694.758C139.238 736.714 153.531 790.196 195.487 814.171L275.249 859.815C311.673 881.485 358.7 868.575 380.37 832.152L385.441 823.392C426.936 751.006 495.172 751.006 537.128 823.392L542.2 832.152C563.869 868.575 610.897 881.485 647.32 859.815L727.082 814.171C769.038 790.196 783.331 736.253 759.356 694.758C717.4 622.372 751.518 563.357 834.969 563.357C882.919 563.357 922.569 524.168 922.569 475.757V394.612C922.108 346.662 882.919 307.011 834.508 307.011ZM461.054 585.027C378.525 585.027 311.212 517.713 311.212 435.184C311.212 352.656 378.525 285.342 461.054 285.342C543.583 285.342 610.897 352.656 610.897 435.184C610.897 517.713 543.583 585.027 461.054 585.027Z" fill="#FAFAFA"/>
</svg>
