<?xml version="1.0" encoding="UTF-8" standalone="no"?>
<!DOCTYPE svg PUBLIC "-//W3C//DTD SVG 1.1//EN" "http://www.w3.org/Graphics/SVG/1.1/DTD/svg11.dtd">
<svg width="100%" height="100%" viewBox="0 0 1080 1080" version="1.1" xmlns="http://www.w3.org/2000/svg" xmlns:xlink="http://www.w3.org/1999/xlink" xml:space="preserve" xmlns:serif="http://www.serif.com/" style="fill-rule:evenodd;clip-rule:evenodd;stroke-linejoin:round;stroke-miterlimit:2;">
    <g id="Layer1" transform="matrix(1.2379,0,0,1.2379,-121.58,-138.159)">
        <g transform="matrix(1.03095,0,0,-1.393,-5.34243,2036.1)">
            <path d="M516.578,794.858C520.665,792.697 526.155,792.697 530.242,794.858C568.664,815.169 758.75,915.656 833.059,954.938C837.217,957.136 838.98,961.07 837.42,964.672C835.861,968.273 831.337,970.716 826.227,970.716L220.593,970.716C215.483,970.716 210.959,968.273 209.4,964.672C207.841,961.07 209.603,957.136 213.761,954.938C288.07,915.656 478.156,815.169 516.578,794.858Z" style="fill:rgb(55,110,107);"/>
        </g>
        <g transform="matrix(1.93039,0,0,2.87797,-146.17,-254.457)">
            <path d="M364.846,264.761C364.846,266.7 362.872,268.388 360.065,268.85C343.418,271.59 289.014,280.542 289.014,280.542C286.446,281.072 284.842,282.782 285.242,284.564C285.641,286.346 287.923,287.664 290.61,287.664L351.611,287.664L351.611,287.738L426.193,287.738C429.66,287.738 432.47,285.853 432.47,283.528C432.47,276.035 432.47,260.469 432.47,252.976C432.47,250.651 435.281,248.766 438.747,248.766C456.893,248.766 509.275,248.766 527.421,248.766C530.888,248.766 533.698,250.651 533.698,252.976L533.698,316.709C533.698,317.826 533.037,318.897 531.86,319.686C530.683,320.476 529.086,320.92 527.421,320.92L177.355,320.92C175.69,320.92 174.094,320.476 172.916,319.686C171.739,318.897 171.078,317.826 171.078,316.709L171.078,252.99C171.078,251.871 171.742,250.798 172.924,250.008C174.106,249.218 175.708,248.776 177.376,248.78C206.669,248.846 329.388,249.124 358.59,249.19C362.049,249.198 364.846,251.081 364.846,253.401C364.846,256.827 364.846,261.603 364.846,264.761Z" style="fill:rgb(55,110,107);"/>
        </g>
        <g>
            <g transform="matrix(0.864208,0,0,1.10874,423.553,-114.05)">
                <path d="M533.698,259.694C533.698,253.659 527.421,248.766 519.677,248.766C461.932,248.766 242.845,248.766 185.099,248.766C177.355,248.766 171.078,253.659 171.078,259.694C171.078,279.869 171.078,320.92 171.078,320.92L533.698,320.92L533.698,259.694Z" style="fill:rgb(243,181,185);"/>
            </g>
            <g transform="matrix(0.995198,0,0,3.4349,31.7069,-924.046)">
                <path d="M643.567,330.11L542.182,330.11L542.182,427.968C542.182,429.916 547.633,431.496 554.358,431.496C573.861,431.496 611.889,431.496 631.392,431.496C638.116,431.496 643.567,429.916 643.567,427.968C643.567,410.066 643.567,330.11 643.567,330.11Z" style="fill:rgb(243,181,185);"/>
            </g>
            <g transform="matrix(0.891256,0,0,2.1365,311.213,-479.932)">
                <path d="M643.567,330.11L542.182,330.11L542.182,425.824C542.182,427.329 543.614,428.771 546.164,429.835C548.714,430.898 552.172,431.496 555.778,431.496C575.173,431.496 610.577,431.496 629.972,431.496C633.578,431.496 637.036,430.898 639.585,429.835C642.135,428.771 643.567,427.329 643.567,425.824C643.567,404.469 643.567,330.11 643.567,330.11Z" style="fill:rgb(243,181,185);"/>
            </g>
            <g transform="matrix(0.891256,0,0,2.1365,205.145,-479.932)">
                <path d="M643.567,330.11L542.182,330.11L542.182,425.824C542.182,427.329 543.614,428.771 546.164,429.835C548.714,430.898 552.172,431.496 555.778,431.496C575.173,431.496 610.577,431.496 629.972,431.496C633.578,431.496 637.036,430.898 639.585,429.835C642.135,428.771 643.567,427.329 643.567,425.824C643.567,404.469 643.567,330.11 643.567,330.11Z" style="fill:rgb(243,181,185);"/>
            </g>
        </g>
        <g>
            <g transform="matrix(1.03137,0,0,1.10874,7.63314,-114.05)">
                <path d="M533.698,259.694C533.698,256.796 532.461,254.016 530.257,251.967C528.054,249.917 525.066,248.766 521.95,248.766C467.213,248.766 237.564,248.766 182.827,248.766C179.711,248.766 176.722,249.917 174.519,251.967C172.316,254.016 171.078,256.796 171.078,259.694C171.078,279.869 171.078,320.92 171.078,320.92L521.95,320.92C525.066,320.92 528.054,319.768 530.257,317.719C532.461,315.669 533.698,312.889 533.698,309.991C533.698,296.389 533.698,273.296 533.698,259.694Z" style="fill:rgb(243,181,185);"/>
            </g>
            <g transform="matrix(1.03137,0,0,1.10874,7.63314,88.869)">
                <path d="M533.698,248.766L182.827,248.766C179.711,248.766 176.722,249.917 174.519,251.967C172.316,254.016 171.078,256.796 171.078,259.694C171.078,273.296 171.078,296.389 171.078,309.991C171.078,312.889 172.316,315.669 174.519,317.719C176.722,319.768 179.711,320.92 182.827,320.92C237.564,320.92 467.213,320.92 521.95,320.92C525.066,320.92 528.054,319.768 530.257,317.719C532.461,315.669 533.698,312.889 533.698,309.991C533.698,289.816 533.698,248.766 533.698,248.766Z" style="fill:rgb(243,181,185);"/>
            </g>
            <g transform="matrix(0.891256,0,0,0.99835,-299.123,-88.4553)">
                <path d="M643.567,330.11L542.182,330.11L542.182,419.359C542.182,422.578 543.614,425.665 546.164,427.941C548.714,430.217 552.172,431.496 555.778,431.496C583.417,431.496 643.567,431.496 643.567,431.496L643.567,330.11Z" style="fill:rgb(243,181,185);"/>
            </g>
            <g transform="matrix(0.952361,0,0,1.02264,-54.8211,-66.8728)">
                <path d="M643.567,341.959C643.567,335.415 637.871,330.11 630.844,330.11L542.182,330.11L542.182,431.496L643.567,431.496L643.567,341.959Z" style="fill:rgb(243,181,185);"/>
            </g>
            <g transform="matrix(1.11936,0,0,1.5867,-18.0037,-303.7)">
                <rect x="259.755" y="362.039" width="174.597" height="45.104" style="fill:rgb(243,181,185);"/>
            </g>
        </g>
    </g>
</svg>
